<svg xmlns="http://www.w3.org/2000/svg" xmlns:xlink="http://www.w3.org/1999/xlink" width="5000" zoomAndPan="magnify" viewBox="0 0 750 749.999995" height="5000" preserveAspectRatio="xMidYMid meet" version="1.0"><defs><g/><clipPath id="bd59fdb7c7"><path d="M 43.191406 43.191406 L 706.808594 43.191406 L 706.808594 706.808594 L 43.191406 706.808594 Z M 43.191406 43.191406 " clip-rule="nonzero"/></clipPath><clipPath id="f157bd1f66"><path d="M 375 43.191406 C 191.746094 43.191406 43.191406 191.746094 43.191406 375 C 43.191406 558.253906 191.746094 706.808594 375 706.808594 C 558.253906 706.808594 706.808594 558.253906 706.808594 375 C 706.808594 191.746094 558.253906 43.191406 375 43.191406 " clip-rule="nonzero"/></clipPath><clipPath id="2299ab6cb4"><path d="M 187 96.210938 L 563 96.210938 L 563 375 L 187 375 Z M 187 96.210938 " clip-rule="nonzero"/></clipPath><clipPath id="4374e6a578"><path d="M 187 191.398438 L 563 191.398438 L 563 470 L 187 470 Z M 187 191.398438 " clip-rule="nonzero"/></clipPath></defs><rect x="-75" width="900" fill="#ffffff" y="-74.999999" height="899.999994" fill-opacity="1"/><rect x="-75" width="900" fill="#ffffff" y="-74.999999" height="999.999994" fill-opacity="1"/><rect x="-75" width="900" fill="#2f4867" y="-74.999999" height="899.999994" fill-opacity="1"/><g clip-path="url(#bd59fdb7c7)"><g clip-path="url(#f157bd1f66)"><path fill="#d9d9d9" d="M 43.191406 43.191406 L 706.808594 43.191406 L 706.808594 706.808594 L 43.191406 706.808594 Z M 43.191406 43.191406 " fill-opacity="1" fill-rule="nonzero"/></g></g><g clip-path="url(#2299ab6cb4)"><path fill="#2e3e5b" d="M 289.550781 280.792969 C 292.578125 277.359375 294.964844 274.328125 297.6875 271.632812 C 306.769531 262.691406 315.546875 253.382812 325.273438 245.171875 C 335.761719 236.324219 350.839844 238.710938 360.503906 248.972656 C 362.921875 251.511719 367.171875 252.308594 370.996094 254.085938 C 372.644531 258.191406 368.730469 259.996094 366.316406 262.292969 C 344.386719 283.148438 327.351562 307.773438 312.578125 333.894531 C 306.921875 343.878906 303.128906 354.964844 298.847656 365.6875 C 295.484375 374.109375 295.054688 375.300781 285.878906 374.566406 C 269.519531 373.25 255.265625 367.675781 244.960938 353.589844 C 227.007812 329.117188 207.648438 305.660156 194.191406 278.1875 C 192.019531 273.71875 190.398438 268.96875 187.402344 261.621094 C 200.828125 264.039062 211.867188 263.945312 218.964844 274.636719 C 223.308594 281.191406 227.742188 287.652344 233.734375 296.59375 C 235.265625 287.191406 236.214844 280.699219 237.375 274.269531 C 246.152344 225.789062 265.632812 182.054688 302.179688 148.734375 C 335.425781 118.382812 374.480469 97.40625 421.304688 96.824219 C 460.632812 96.363281 494.398438 111.796875 523.910156 136.605469 C 535.71875 146.558594 545.71875 158.71875 556.207031 170.171875 C 558.929688 173.140625 560.429688 177.183594 562.476562 180.769531 C 561.683594 181.535156 560.886719 182.300781 560.09375 183.066406 C 555.261719 180.0625 550.246094 177.308594 545.6875 173.9375 C 542.84375 171.824219 540.640625 168.824219 538.253906 166.128906 C 507.671875 131.492188 469.046875 122.242188 425.28125 131.675781 C 391.851562 138.871094 364.234375 156.910156 341.023438 181.625 C 316.496094 207.6875 299.855469 238.375 289.886719 272.738281 C 289.429688 274.269531 289.0625 275.828125 288.816406 277.390625 C 288.753906 278.097656 289.121094 278.863281 289.550781 280.792969 Z M 289.550781 280.792969 " fill-opacity="1" fill-rule="nonzero"/></g><g clip-path="url(#4374e6a578)"><path fill="#efc401" d="M 460.441406 285.816406 C 457.414062 289.246094 455.027344 292.28125 452.304688 294.972656 C 443.222656 303.917969 434.445312 313.226562 424.71875 321.433594 C 414.230469 330.285156 399.152344 327.898438 389.488281 317.636719 C 387.070312 315.09375 382.820312 314.300781 378.996094 312.523438 C 377.34375 308.417969 381.261719 306.613281 383.675781 304.316406 C 405.605469 283.460938 422.640625 258.835938 437.410156 232.710938 C 443.070312 222.726562 446.863281 211.640625 451.144531 200.921875 C 454.507812 192.5 454.9375 191.304688 464.109375 192.042969 C 480.472656 193.359375 494.726562 198.933594 505.03125 213.019531 C 522.984375 237.488281 542.34375 260.949219 555.800781 288.421875 C 557.972656 292.890625 559.59375 297.640625 562.589844 304.988281 C 549.164062 302.570312 538.121094 302.660156 531.027344 291.972656 C 526.683594 285.417969 522.25 278.957031 516.253906 270.015625 C 514.726562 279.417969 513.777344 285.910156 512.617188 292.339844 C 503.839844 340.820312 484.355469 384.554688 447.808594 417.875 C 414.566406 448.226562 375.511719 469.203125 328.6875 469.785156 C 289.355469 470.246094 255.59375 454.808594 226.078125 430.003906 C 214.273438 420.050781 204.273438 407.890625 193.785156 396.4375 C 191.0625 393.464844 189.5625 389.425781 187.515625 385.839844 C 188.308594 385.074219 189.105469 384.308594 189.898438 383.542969 C 194.730469 386.546875 199.746094 389.300781 204.304688 392.671875 C 207.148438 394.785156 209.351562 397.785156 211.734375 400.480469 C 242.320312 435.117188 280.945312 444.367188 324.710938 434.933594 C 358.140625 427.738281 385.757812 409.699219 408.96875 384.984375 C 433.496094 358.921875 450.132812 328.234375 460.105469 293.871094 C 460.5625 292.339844 460.929688 290.777344 461.175781 289.21875 C 461.234375 288.511719 460.867188 287.746094 460.441406 285.816406 Z M 460.441406 285.816406 " fill-opacity="1" fill-rule="nonzero"/></g><g fill="#2e3e5b" fill-opacity="1"><g transform="translate(191.926131, 578.858696)"><g><path d="M 138.140625 -70.71875 C 134.878906 -70.71875 132.234375 -71.753906 130.203125 -73.828125 C 128.179688 -75.898438 127.171875 -78.566406 127.171875 -81.828125 C 127.171875 -85.085938 128.179688 -87.707031 130.203125 -89.6875 C 132.234375 -91.664062 134.878906 -92.65625 138.140625 -92.65625 C 141.398438 -92.65625 144.019531 -91.664062 146 -89.6875 C 147.976562 -87.707031 148.96875 -85.085938 148.96875 -81.828125 C 148.96875 -78.472656 147.976562 -75.78125 146 -73.75 C 144.019531 -71.726562 141.398438 -70.71875 138.140625 -70.71875 Z M 177.65625 -21.15625 L 189.953125 -21.15625 L 189.953125 0 L 175.671875 0 C 169.859375 0 164.96875 -1.320312 161 -3.96875 C 156.945312 -1.320312 152.015625 0 146.203125 0 L 86.984375 0 C 85.210938 0 83.535156 -0.128906 81.953125 -0.390625 C 79.929688 7.890625 75.4375 14.320312 68.46875 18.90625 C 62.21875 23.039062 54.6875 25.109375 45.875 25.109375 C 33.53125 25.109375 23.96875 20.75 17.1875 12.03125 C 11.894531 5.332031 9.25 -2.597656 9.25 -11.765625 C 9.25 -18.285156 10.703125 -24.054688 13.609375 -29.078125 L 34.234375 -33.4375 C 31.242188 -27.707031 29.75 -21.757812 29.75 -15.59375 C 29.75 -9.6875 31.203125 -4.945312 34.109375 -1.375 C 37.015625 2.1875 40.9375 3.96875 45.875 3.96875 C 56.175781 3.96875 61.328125 -0.613281 61.328125 -9.78125 L 61.328125 -43.359375 L 83.140625 -54.859375 L 83.140625 -26.96875 C 83.140625 -24.757812 83.492188 -23.257812 84.203125 -22.46875 C 84.910156 -21.675781 86.320312 -21.238281 88.4375 -21.15625 C 93.019531 -33.3125 99.363281 -43.132812 107.46875 -50.625 C 116.363281 -58.738281 126.410156 -62.796875 137.609375 -62.796875 C 148.441406 -62.796875 157.078125 -59.046875 163.515625 -51.546875 C 169.066406 -45.203125 171.84375 -37.445312 171.84375 -28.28125 L 171.84375 -25.90625 C 171.84375 -22.738281 173.78125 -21.15625 177.65625 -21.15625 Z M 145.53125 -21.15625 C 147.65625 -21.15625 148.9375 -21.441406 149.375 -22.015625 C 149.8125 -22.585938 150.03125 -24.238281 150.03125 -26.96875 L 150.03125 -28.28125 C 150.03125 -32.519531 148.90625 -35.914062 146.65625 -38.46875 C 144.414062 -41.019531 141.441406 -42.296875 137.734375 -42.296875 C 132.453125 -42.296875 127.363281 -40.398438 122.46875 -36.609375 C 117.582031 -32.828125 113.550781 -27.675781 110.375 -21.15625 Z M 145.53125 -21.15625 "/></g></g></g><g fill="#2e3e5b" fill-opacity="1"><g transform="translate(380.554188, 578.858696)"><g><path d="M -1.328125 0 L -1.328125 -21.15625 L 10.96875 -21.15625 C 13.257812 -21.15625 14.800781 -21.550781 15.59375 -22.34375 C 16.382812 -23.132812 16.78125 -24.675781 16.78125 -26.96875 L 16.78125 -48.640625 L 38.59375 -60.140625 L 38.59375 -25.90625 C 38.59375 -17.53125 35.953125 -10.96875 30.671875 -6.21875 C 26.085938 -2.070312 20.179688 0 12.953125 0 Z M 3.3125 32.65625 C 0.0390625 32.65625 -2.601562 31.617188 -4.625 29.546875 C -6.65625 27.472656 -7.671875 24.804688 -7.671875 21.546875 C -7.671875 18.285156 -6.65625 15.660156 -4.625 13.671875 C -2.601562 11.691406 0.0390625 10.703125 3.3125 10.703125 C 6.570312 10.703125 9.191406 11.691406 11.171875 13.671875 C 13.148438 15.660156 14.140625 18.285156 14.140625 21.546875 C 14.140625 24.890625 13.148438 27.578125 11.171875 29.609375 C 9.191406 31.640625 6.570312 32.65625 3.3125 32.65625 Z M 27.09375 32.65625 C 23.832031 32.65625 21.1875 31.617188 19.15625 29.546875 C 17.132812 27.472656 16.125 24.804688 16.125 21.546875 C 16.125 18.285156 17.132812 15.660156 19.15625 13.671875 C 21.1875 11.691406 23.832031 10.703125 27.09375 10.703125 C 30.351562 10.703125 32.972656 11.691406 34.953125 13.671875 C 36.941406 15.660156 37.9375 18.285156 37.9375 21.546875 C 37.9375 24.890625 36.941406 27.578125 34.953125 29.609375 C 32.972656 31.640625 30.351562 32.65625 27.09375 32.65625 Z M 27.09375 32.65625 "/></g></g></g><g fill="#2e3e5b" fill-opacity="1"><g transform="translate(431.048884, 578.858696)"><g><path d="M 37.546875 0 C 29.253906 0 22.773438 -2.644531 18.109375 -7.9375 C 13.960938 -12.601562 11.890625 -18.59375 11.890625 -25.90625 L 11.890625 -73.765625 L 33.703125 -85.265625 L 33.703125 -26.96875 C 33.703125 -24.675781 34.097656 -23.132812 34.890625 -22.34375 C 35.691406 -21.550781 37.238281 -21.15625 39.53125 -21.15625 L 51.8125 -21.15625 L 51.8125 0 Z M 37.546875 0 "/></g></g></g><g fill="#2e3e5b" fill-opacity="1"><g transform="translate(481.543579, 578.858696)"><g><path d="M 28.8125 -68.078125 C 25.550781 -68.078125 22.90625 -69.113281 20.875 -71.1875 C 18.851562 -73.257812 17.84375 -75.925781 17.84375 -79.1875 C 17.84375 -82.445312 18.851562 -85.066406 20.875 -87.046875 C 22.90625 -89.023438 25.550781 -90.015625 28.8125 -90.015625 C 32.070312 -90.015625 34.691406 -89.023438 36.671875 -87.046875 C 38.660156 -85.066406 39.65625 -82.445312 39.65625 -79.1875 C 39.65625 -75.832031 38.660156 -73.140625 36.671875 -71.109375 C 34.691406 -69.085938 32.070312 -68.078125 28.8125 -68.078125 Z M 52.609375 -68.078125 C 49.347656 -68.078125 46.703125 -69.113281 44.671875 -71.1875 C 42.648438 -73.257812 41.640625 -75.925781 41.640625 -79.1875 C 41.640625 -82.445312 42.648438 -85.066406 44.671875 -87.046875 C 46.703125 -89.023438 49.347656 -90.015625 52.609375 -90.015625 C 55.867188 -90.015625 58.488281 -89.023438 60.46875 -87.046875 C 62.457031 -85.066406 63.453125 -82.445312 63.453125 -79.1875 C 63.453125 -75.832031 62.457031 -73.140625 60.46875 -71.109375 C 58.488281 -69.085938 55.867188 -68.078125 52.609375 -68.078125 Z M -1.328125 0 L -1.328125 -21.15625 L 14.671875 -21.15625 C 13.441406 -24.414062 12.828125 -27.847656 12.828125 -31.453125 C 12.828125 -41.328125 15.601562 -49.171875 21.15625 -54.984375 C 26.082031 -60.191406 32.554688 -62.796875 40.578125 -62.796875 C 48.773438 -62.796875 55.207031 -60.148438 59.875 -54.859375 C 63.9375 -50.359375 65.96875 -44.5 65.96875 -37.28125 L 65.96875 -25.90625 C 65.96875 -18.15625 63.675781 -11.898438 59.09375 -7.140625 C 54.507812 -2.378906 48.25 0 40.3125 0 Z M 44.15625 -38.0625 C 44.15625 -40.882812 42.960938 -42.296875 40.578125 -42.296875 C 36.347656 -42.296875 34.234375 -38.945312 34.234375 -32.25 C 34.234375 -24.851562 36.347656 -21.15625 40.578125 -21.15625 C 42.960938 -21.15625 44.15625 -22.5625 44.15625 -25.375 Z M 44.15625 -38.0625 "/></g></g></g></svg>